<svg xmlns="http://www.w3.org/2000/svg" width="64" height="64" viewBox="0 0 48 48"><path d="M32.66 7H15.34c-.715 0-1.375.383-1.73 1L4.95 23a1.99 1.99 0 0 0 0 2l8.66 15c.355.617 1.015 1 1.73 1h17.32c.715 0 1.375-.383 1.73-1l8.66-15a1.99 1.99 0 0 0 0-2L34.39 8a1.998 1.998 0 0 0-1.73-1zm0 0" fill="#2979ff"/><path d="M32 35H16c-.55 0-1-.45-1-1V14c0-.55.45-1 1-1h13l4 4v17c0 .55-.45 1-1 1zm0 0" fill="#fff"/><path d="M29 13v3c0 .55.45 1 1 1h3zm0 0" fill="#b1cfff"/><path d="M22.266 23.832H20.93v-4.254l-1.313.387v-1.012l2.524-.875h.125zm6.437-2.352c0 .415-.05.778-.148 1.082a2.067 2.067 0 0 1-.41.754c-.176.2-.387.348-.633.446a2.159 2.159 0 0 1-.809.148 2.2 2.2 0 0 1-.816-.148 1.639 1.639 0 0 1-.633-.446 2.119 2.119 0 0 1-.414-.753 3.575 3.575 0 0 1-.145-1.083v-1.05c0-.414.047-.774.145-1.078.098-.305.234-.559.41-.758.176-.2.387-.352.633-.446.242-.097.515-.148.812-.148.293 0 .567.05.813.145.246.097.457.246.633.449.175.199.312.453.414.758.097.304.148.664.148 1.078zm-1.332-1.218c0-.23-.016-.422-.047-.582a1.33 1.33 0 0 0-.137-.38.521.521 0 0 0-.21-.21.678.678 0 0 0-.566 0 .513.513 0 0 0-.208.21 1.103 1.103 0 0 0-.129.38c-.031.16-.047.351-.047.582v1.383c0 .234.016.43.047.585.028.16.074.29.133.383a.534.534 0 0 0 .211.207c.086.043.18.063.285.063.102 0 .195-.02.277-.063a.51.51 0 0 0 .211-.207c.059-.093.102-.222.133-.383a3.06 3.06 0 0 0 .047-.585zm-4.062 9.308c0 .418-.051.778-.149 1.082a2 2 0 0 1-.41.754 1.608 1.608 0 0 1-.633.45 2.223 2.223 0 0 1-.808.144c-.297 0-.57-.05-.817-.145a1.608 1.608 0 0 1-.633-.449 2.181 2.181 0 0 1-.414-.754 3.558 3.558 0 0 1-.144-1.082v-1.05c0-.415.047-.774.144-1.079.098-.304.235-.558.41-.757.176-.2.387-.348.633-.446a2.2 2.2 0 0 1 .817-.144c.293 0 .562.047.808.144.246.098.457.246.637.446.176.199.313.453.41.757.102.305.149.664.149 1.079zm-1.332-1.218c0-.23-.016-.422-.047-.582a1.225 1.225 0 0 0-.133-.38.546.546 0 0 0-.211-.21.678.678 0 0 0-.566 0 .546.546 0 0 0-.211.21 1.298 1.298 0 0 0-.13.38c-.03.16-.042.351-.042.582v1.382c0 .235.011.43.043.586.03.16.074.29.133.383a.518.518 0 0 0 .214.207.596.596 0 0 0 .282.063.6.6 0 0 0 .28-.063.534.534 0 0 0 .212-.207c.058-.094.101-.223.133-.383a3.49 3.49 0 0 0 .043-.586zm5.683 3.57h-1.336v-4.25l-1.312.383v-1.012l2.523-.875h.121v5.754zm0 0" fill="#03a9f4"/></svg>