<?xml version="1.0" encoding="UTF-8"?>
<svg xmlns="http://www.w3.org/2000/svg" xmlns:xlink="http://www.w3.org/1999/xlink" width="48pt" height="48pt" viewBox="0 0 48 48" version="1.1">
<g id="surface1">
<path style=" stroke:none;fill-rule:nonzero;fill:rgb(16.078431%,47.45098%,100%);fill-opacity:1;" d="M 32.660156 7 L 15.339844 7 C 14.625 7 13.964844 7.382813 13.609375 8 L 4.949219 23 C 4.589844 23.617188 4.589844 24.382813 4.949219 25 L 13.609375 40 C 13.964844 40.617188 14.625 41 15.339844 41 L 32.660156 41 C 33.375 41 34.035156 40.617188 34.390625 40 L 43.050781 25 C 43.410156 24.382813 43.410156 23.617188 43.050781 23 L 34.390625 8 C 34.035156 7.382813 33.375 7 32.660156 7 Z M 32.660156 7 "/>
<path style=" stroke:none;fill-rule:nonzero;fill:rgb(100%,100%,100%);fill-opacity:1;" d="M 32 35 L 16 35 C 15.449219 35 15 34.550781 15 34 L 15 14 C 15 13.449219 15.449219 13 16 13 L 29 13 L 33 17 L 33 34 C 33 34.550781 32.550781 35 32 35 Z M 32 35 "/>
<path style=" stroke:none;fill-rule:nonzero;fill:rgb(69.411765%,81.176471%,100%);fill-opacity:1;" d="M 29 13 L 29 16 C 29 16.550781 29.449219 17 30 17 L 33 17 Z M 29 13 "/>
<path style=" stroke:none;fill-rule:nonzero;fill:rgb(1.176471%,66.27451%,95.686275%);fill-opacity:1;" d="M 22.265625 23.832031 L 20.929688 23.832031 L 20.929688 19.578125 L 19.617188 19.964844 L 19.617188 18.953125 L 22.140625 18.078125 L 22.265625 18.078125 Z M 22.265625 23.832031 "/>
<path style=" stroke:none;fill-rule:nonzero;fill:rgb(1.176471%,66.27451%,95.686275%);fill-opacity:1;" d="M 28.703125 21.480469 C 28.703125 21.894531 28.652344 22.257813 28.554688 22.5625 C 28.460938 22.863281 28.320313 23.117188 28.144531 23.316406 C 27.96875 23.515625 27.757813 23.664063 27.511719 23.761719 C 27.269531 23.859375 26.996094 23.910156 26.703125 23.910156 C 26.40625 23.910156 26.132813 23.859375 25.886719 23.761719 C 25.640625 23.664063 25.429688 23.515625 25.253906 23.316406 C 25.078125 23.117188 24.9375 22.863281 24.839844 22.5625 C 24.742188 22.257813 24.695313 21.894531 24.695313 21.480469 L 24.695313 20.429688 C 24.695313 20.015625 24.742188 19.65625 24.839844 19.351563 C 24.9375 19.046875 25.074219 18.792969 25.25 18.59375 C 25.425781 18.394531 25.636719 18.242188 25.882813 18.148438 C 26.125 18.050781 26.398438 18 26.695313 18 C 26.988281 18 27.261719 18.050781 27.507813 18.144531 C 27.753906 18.242188 27.964844 18.390625 28.140625 18.59375 C 28.316406 18.792969 28.453125 19.046875 28.554688 19.351563 C 28.652344 19.65625 28.703125 20.015625 28.703125 20.429688 Z M 27.371094 20.261719 C 27.371094 20.03125 27.355469 19.839844 27.324219 19.679688 C 27.289063 19.527344 27.246094 19.398438 27.1875 19.300781 C 27.132813 19.203125 27.058594 19.132813 26.976563 19.089844 C 26.894531 19.050781 26.800781 19.027344 26.695313 19.027344 C 26.589844 19.027344 26.496094 19.050781 26.410156 19.089844 C 26.328125 19.132813 26.257813 19.203125 26.203125 19.300781 C 26.144531 19.398438 26.101563 19.523438 26.074219 19.679688 C 26.042969 19.839844 26.027344 20.03125 26.027344 20.261719 L 26.027344 21.644531 C 26.027344 21.878906 26.042969 22.074219 26.074219 22.230469 C 26.101563 22.390625 26.148438 22.519531 26.207031 22.613281 C 26.265625 22.710938 26.335938 22.777344 26.417969 22.820313 C 26.503906 22.863281 26.597656 22.882813 26.703125 22.882813 C 26.804688 22.882813 26.898438 22.863281 26.980469 22.820313 C 27.0625 22.777344 27.136719 22.710938 27.191406 22.613281 C 27.25 22.519531 27.292969 22.390625 27.324219 22.230469 C 27.355469 22.074219 27.371094 21.878906 27.371094 21.644531 Z M 27.371094 20.261719 "/>
<path style=" stroke:none;fill-rule:nonzero;fill:rgb(1.176471%,66.27451%,95.686275%);fill-opacity:1;" d="M 23.308594 29.570313 C 23.308594 29.988281 23.257813 30.347656 23.160156 30.652344 C 23.066406 30.953125 22.929688 31.207031 22.75 31.40625 C 22.574219 31.609375 22.363281 31.757813 22.117188 31.855469 C 21.875 31.949219 21.605469 32 21.308594 32 C 21.011719 32 20.738281 31.949219 20.492188 31.855469 C 20.246094 31.757813 20.035156 31.609375 19.859375 31.40625 C 19.683594 31.207031 19.546875 30.953125 19.445313 30.652344 C 19.347656 30.347656 19.300781 29.988281 19.300781 29.570313 L 19.300781 28.519531 C 19.300781 28.105469 19.347656 27.746094 19.445313 27.441406 C 19.542969 27.136719 19.679688 26.882813 19.855469 26.683594 C 20.03125 26.484375 20.242188 26.335938 20.488281 26.238281 C 20.734375 26.140625 21.003906 26.09375 21.304688 26.09375 C 21.597656 26.09375 21.867188 26.140625 22.113281 26.238281 C 22.359375 26.335938 22.570313 26.484375 22.75 26.683594 C 22.925781 26.882813 23.0625 27.136719 23.160156 27.441406 C 23.261719 27.746094 23.308594 28.105469 23.308594 28.519531 Z M 21.976563 28.351563 C 21.976563 28.121094 21.960938 27.929688 21.929688 27.769531 C 21.898438 27.617188 21.855469 27.488281 21.796875 27.390625 C 21.738281 27.292969 21.667969 27.222656 21.585938 27.179688 C 21.5 27.140625 21.40625 27.117188 21.300781 27.117188 C 21.195313 27.117188 21.101563 27.140625 21.019531 27.179688 C 20.9375 27.222656 20.867188 27.292969 20.808594 27.390625 C 20.753906 27.488281 20.710938 27.613281 20.679688 27.769531 C 20.648438 27.929688 20.636719 28.121094 20.636719 28.351563 L 20.636719 29.734375 C 20.636719 29.96875 20.648438 30.164063 20.679688 30.320313 C 20.710938 30.480469 20.753906 30.609375 20.8125 30.703125 C 20.871094 30.800781 20.941406 30.867188 21.027344 30.910156 C 21.109375 30.953125 21.203125 30.972656 21.308594 30.972656 C 21.414063 30.972656 21.503906 30.953125 21.589844 30.910156 C 21.671875 30.867188 21.742188 30.800781 21.800781 30.703125 C 21.859375 30.609375 21.902344 30.480469 21.933594 30.320313 C 21.960938 30.164063 21.976563 29.96875 21.976563 29.734375 Z M 21.976563 28.351563 "/>
<path style=" stroke:none;fill-rule:nonzero;fill:rgb(1.176471%,66.27451%,95.686275%);fill-opacity:1;" d="M 27.660156 31.921875 L 26.324219 31.921875 L 26.324219 27.671875 L 25.011719 28.054688 L 25.011719 27.042969 L 27.535156 26.167969 L 27.65625 26.167969 L 27.65625 31.921875 Z M 27.660156 31.921875 "/>
</g>
</svg>

